<mxfile host="app.diagrams.net" modified="2024-03-08T14:24:07.017Z" agent="Mozilla/5.0 (Windows NT 10.0; Win64; x64) AppleWebKit/537.36 (KHTML, like Gecko) Chrome/122.0.0.0 Safari/537.36" etag="luAN39S4aehTFujaiJs7" version="24.0.1" type="google">
  <diagram name="Page-1" id="QDCDp9L6iQxX6dIr1Wgm">
    <mxGraphModel grid="1" page="1" gridSize="10" guides="1" tooltips="1" connect="1" arrows="1" fold="1" pageScale="1" pageWidth="850" pageHeight="1100" math="0" shadow="0">
      <root>
        <mxCell id="0" />
        <mxCell id="1" parent="0" />
        <mxCell id="JNUzvuQ-uH0PX8Vwja8d-5" value="" style="edgeStyle=orthogonalEdgeStyle;rounded=0;sketch=1;hachureGap=4;jiggle=2;curveFitting=1;orthogonalLoop=1;jettySize=auto;html=1;" edge="1" parent="1" source="JNUzvuQ-uH0PX8Vwja8d-1" target="JNUzvuQ-uH0PX8Vwja8d-4">
          <mxGeometry relative="1" as="geometry" />
        </mxCell>
        <mxCell id="JNUzvuQ-uH0PX8Vwja8d-6" value="interpreted by" style="edgeLabel;html=1;align=center;verticalAlign=middle;resizable=0;points=[];sketch=1;hachureGap=4;jiggle=2;curveFitting=1;" connectable="0" vertex="1" parent="JNUzvuQ-uH0PX8Vwja8d-5">
          <mxGeometry x="0.0375" y="-1" relative="1" as="geometry">
            <mxPoint as="offset" />
          </mxGeometry>
        </mxCell>
        <mxCell id="JNUzvuQ-uH0PX8Vwja8d-8" value="" style="edgeStyle=orthogonalEdgeStyle;rounded=0;sketch=1;hachureGap=4;jiggle=2;curveFitting=1;orthogonalLoop=1;jettySize=auto;html=1;" edge="1" parent="1" source="JNUzvuQ-uH0PX8Vwja8d-1" target="JNUzvuQ-uH0PX8Vwja8d-7">
          <mxGeometry relative="1" as="geometry" />
        </mxCell>
        <mxCell id="JNUzvuQ-uH0PX8Vwja8d-9" value="ranked" style="edgeLabel;html=1;align=center;verticalAlign=middle;resizable=0;points=[];sketch=1;hachureGap=4;jiggle=2;curveFitting=1;" connectable="0" vertex="1" parent="JNUzvuQ-uH0PX8Vwja8d-8">
          <mxGeometry x="0.025" relative="1" as="geometry">
            <mxPoint as="offset" />
          </mxGeometry>
        </mxCell>
        <mxCell id="JNUzvuQ-uH0PX8Vwja8d-19" value="" style="edgeStyle=orthogonalEdgeStyle;rounded=0;sketch=1;hachureGap=4;jiggle=2;curveFitting=1;orthogonalLoop=1;jettySize=auto;html=1;" edge="1" parent="1" source="JNUzvuQ-uH0PX8Vwja8d-1" target="JNUzvuQ-uH0PX8Vwja8d-18">
          <mxGeometry relative="1" as="geometry" />
        </mxCell>
        <mxCell id="JNUzvuQ-uH0PX8Vwja8d-23" value="published" style="edgeLabel;html=1;align=center;verticalAlign=middle;resizable=0;points=[];sketch=1;hachureGap=4;jiggle=2;curveFitting=1;" connectable="0" vertex="1" parent="JNUzvuQ-uH0PX8Vwja8d-19">
          <mxGeometry x="0.0857" y="3" relative="1" as="geometry">
            <mxPoint as="offset" />
          </mxGeometry>
        </mxCell>
        <mxCell id="JNUzvuQ-uH0PX8Vwja8d-1" value="Song" style="rounded=0;whiteSpace=wrap;html=1;sketch=1;hachureGap=4;jiggle=2;curveFitting=1;" vertex="1" parent="1">
          <mxGeometry x="425" y="380" width="120" height="60" as="geometry" />
        </mxCell>
        <mxCell id="JNUzvuQ-uH0PX8Vwja8d-32" value="" style="edgeStyle=orthogonalEdgeStyle;rounded=0;sketch=1;hachureGap=4;jiggle=2;curveFitting=1;orthogonalLoop=1;jettySize=auto;html=1;" edge="1" parent="1" source="JNUzvuQ-uH0PX8Vwja8d-4" target="JNUzvuQ-uH0PX8Vwja8d-31">
          <mxGeometry relative="1" as="geometry" />
        </mxCell>
        <mxCell id="JNUzvuQ-uH0PX8Vwja8d-33" value="information" style="edgeLabel;html=1;align=center;verticalAlign=middle;resizable=0;points=[];sketch=1;hachureGap=4;jiggle=2;curveFitting=1;" connectable="0" vertex="1" parent="JNUzvuQ-uH0PX8Vwja8d-32">
          <mxGeometry x="-0.05" y="-2" relative="1" as="geometry">
            <mxPoint as="offset" />
          </mxGeometry>
        </mxCell>
        <mxCell id="JNUzvuQ-uH0PX8Vwja8d-55" value="" style="edgeStyle=orthogonalEdgeStyle;rounded=0;sketch=1;hachureGap=4;jiggle=2;curveFitting=1;orthogonalLoop=1;jettySize=auto;html=1;" edge="1" parent="1" source="JNUzvuQ-uH0PX8Vwja8d-4" target="JNUzvuQ-uH0PX8Vwja8d-54">
          <mxGeometry relative="1" as="geometry" />
        </mxCell>
        <mxCell id="JNUzvuQ-uH0PX8Vwja8d-56" value="has" style="edgeLabel;html=1;align=center;verticalAlign=middle;resizable=0;points=[];sketch=1;hachureGap=4;jiggle=2;curveFitting=1;" connectable="0" vertex="1" parent="JNUzvuQ-uH0PX8Vwja8d-55">
          <mxGeometry x="-0.15" y="1" relative="1" as="geometry">
            <mxPoint as="offset" />
          </mxGeometry>
        </mxCell>
        <mxCell id="JNUzvuQ-uH0PX8Vwja8d-67" value="" style="edgeStyle=orthogonalEdgeStyle;rounded=0;sketch=1;hachureGap=4;jiggle=2;curveFitting=1;orthogonalLoop=1;jettySize=auto;html=1;" edge="1" parent="1" source="JNUzvuQ-uH0PX8Vwja8d-4" target="JNUzvuQ-uH0PX8Vwja8d-66">
          <mxGeometry relative="1" as="geometry" />
        </mxCell>
        <mxCell id="JNUzvuQ-uH0PX8Vwja8d-68" value="has" style="edgeLabel;html=1;align=center;verticalAlign=middle;resizable=0;points=[];sketch=1;hachureGap=4;jiggle=2;curveFitting=1;" connectable="0" vertex="1" parent="JNUzvuQ-uH0PX8Vwja8d-67">
          <mxGeometry x="-0.025" y="2" relative="1" as="geometry">
            <mxPoint as="offset" />
          </mxGeometry>
        </mxCell>
        <mxCell id="JNUzvuQ-uH0PX8Vwja8d-4" value="Arist" style="rounded=0;whiteSpace=wrap;html=1;sketch=1;hachureGap=4;jiggle=2;curveFitting=1;" vertex="1" parent="1">
          <mxGeometry x="170" y="330" width="120" height="60" as="geometry" />
        </mxCell>
        <mxCell id="JNUzvuQ-uH0PX8Vwja8d-11" value="" style="edgeStyle=orthogonalEdgeStyle;rounded=0;sketch=1;hachureGap=4;jiggle=2;curveFitting=1;orthogonalLoop=1;jettySize=auto;html=1;" edge="1" parent="1" source="JNUzvuQ-uH0PX8Vwja8d-7" target="JNUzvuQ-uH0PX8Vwja8d-10">
          <mxGeometry relative="1" as="geometry" />
        </mxCell>
        <mxCell id="JNUzvuQ-uH0PX8Vwja8d-7" value="Billboard Spot" style="rounded=0;whiteSpace=wrap;html=1;sketch=1;hachureGap=4;jiggle=2;curveFitting=1;" vertex="1" parent="1">
          <mxGeometry x="425" y="280" width="120" height="60" as="geometry" />
        </mxCell>
        <mxCell id="JNUzvuQ-uH0PX8Vwja8d-25" value="" style="edgeStyle=orthogonalEdgeStyle;rounded=0;sketch=1;hachureGap=4;jiggle=2;curveFitting=1;orthogonalLoop=1;jettySize=auto;html=1;" edge="1" parent="1" source="JNUzvuQ-uH0PX8Vwja8d-10" target="JNUzvuQ-uH0PX8Vwja8d-24">
          <mxGeometry relative="1" as="geometry" />
        </mxCell>
        <mxCell id="JNUzvuQ-uH0PX8Vwja8d-26" value="value" style="edgeLabel;html=1;align=center;verticalAlign=middle;resizable=0;points=[];sketch=1;hachureGap=4;jiggle=2;curveFitting=1;" connectable="0" vertex="1" parent="JNUzvuQ-uH0PX8Vwja8d-25">
          <mxGeometry x="-0.075" y="-1" relative="1" as="geometry">
            <mxPoint as="offset" />
          </mxGeometry>
        </mxCell>
        <mxCell id="JNUzvuQ-uH0PX8Vwja8d-28" value="" style="edgeStyle=orthogonalEdgeStyle;rounded=0;sketch=1;hachureGap=4;jiggle=2;curveFitting=1;orthogonalLoop=1;jettySize=auto;html=1;" edge="1" parent="1" source="JNUzvuQ-uH0PX8Vwja8d-10" target="JNUzvuQ-uH0PX8Vwja8d-27">
          <mxGeometry relative="1" as="geometry" />
        </mxCell>
        <mxCell id="JNUzvuQ-uH0PX8Vwja8d-51" value="dateValue" style="edgeLabel;html=1;align=center;verticalAlign=middle;resizable=0;points=[];sketch=1;hachureGap=4;jiggle=2;curveFitting=1;" connectable="0" vertex="1" parent="JNUzvuQ-uH0PX8Vwja8d-28">
          <mxGeometry x="-0.05" y="1" relative="1" as="geometry">
            <mxPoint as="offset" />
          </mxGeometry>
        </mxCell>
        <mxCell id="JNUzvuQ-uH0PX8Vwja8d-10" value="Ranking" style="rounded=0;whiteSpace=wrap;html=1;sketch=1;hachureGap=4;jiggle=2;curveFitting=1;" vertex="1" parent="1">
          <mxGeometry x="610" y="280" width="120" height="60" as="geometry" />
        </mxCell>
        <mxCell id="JNUzvuQ-uH0PX8Vwja8d-21" value="" style="edgeStyle=orthogonalEdgeStyle;rounded=0;sketch=1;hachureGap=4;jiggle=2;curveFitting=1;orthogonalLoop=1;jettySize=auto;html=1;" edge="1" parent="1" source="JNUzvuQ-uH0PX8Vwja8d-18" target="JNUzvuQ-uH0PX8Vwja8d-20">
          <mxGeometry relative="1" as="geometry" />
        </mxCell>
        <mxCell id="JNUzvuQ-uH0PX8Vwja8d-22" value="value" style="edgeLabel;html=1;align=center;verticalAlign=middle;resizable=0;points=[];sketch=1;hachureGap=4;jiggle=2;curveFitting=1;" connectable="0" vertex="1" parent="JNUzvuQ-uH0PX8Vwja8d-21">
          <mxGeometry x="0.025" y="2" relative="1" as="geometry">
            <mxPoint as="offset" />
          </mxGeometry>
        </mxCell>
        <mxCell id="JNUzvuQ-uH0PX8Vwja8d-18" value="PublicationDate" style="rounded=0;whiteSpace=wrap;html=1;sketch=1;hachureGap=4;jiggle=2;curveFitting=1;" vertex="1" parent="1">
          <mxGeometry x="610" y="370" width="120" height="60" as="geometry" />
        </mxCell>
        <mxCell id="JNUzvuQ-uH0PX8Vwja8d-20" value="Litreral(DATE)" style="rounded=0;whiteSpace=wrap;html=1;sketch=1;hachureGap=4;jiggle=2;curveFitting=1;" vertex="1" parent="1">
          <mxGeometry x="790" y="360" width="120" height="60" as="geometry" />
        </mxCell>
        <mxCell id="JNUzvuQ-uH0PX8Vwja8d-24" value="Literal(INT)" style="rounded=0;whiteSpace=wrap;html=1;sketch=1;hachureGap=4;jiggle=2;curveFitting=1;" vertex="1" parent="1">
          <mxGeometry x="800" y="280" width="120" height="60" as="geometry" />
        </mxCell>
        <mxCell id="JNUzvuQ-uH0PX8Vwja8d-27" value="Litreal(Date)" style="rounded=0;whiteSpace=wrap;html=1;sketch=1;hachureGap=4;jiggle=2;curveFitting=1;" vertex="1" parent="1">
          <mxGeometry x="610" y="170" width="120" height="60" as="geometry" />
        </mxCell>
        <mxCell id="JNUzvuQ-uH0PX8Vwja8d-35" value="" style="edgeStyle=orthogonalEdgeStyle;rounded=0;sketch=1;hachureGap=4;jiggle=2;curveFitting=1;orthogonalLoop=1;jettySize=auto;html=1;" edge="1" parent="1" source="JNUzvuQ-uH0PX8Vwja8d-31" target="JNUzvuQ-uH0PX8Vwja8d-34">
          <mxGeometry relative="1" as="geometry" />
        </mxCell>
        <mxCell id="JNUzvuQ-uH0PX8Vwja8d-36" value="hasGender" style="edgeLabel;html=1;align=center;verticalAlign=middle;resizable=0;points=[];sketch=1;hachureGap=4;jiggle=2;curveFitting=1;" connectable="0" vertex="1" parent="JNUzvuQ-uH0PX8Vwja8d-35">
          <mxGeometry x="-0.1" y="4" relative="1" as="geometry">
            <mxPoint as="offset" />
          </mxGeometry>
        </mxCell>
        <mxCell id="JNUzvuQ-uH0PX8Vwja8d-38" value="" style="edgeStyle=orthogonalEdgeStyle;rounded=0;sketch=1;hachureGap=4;jiggle=2;curveFitting=1;orthogonalLoop=1;jettySize=auto;html=1;" edge="1" parent="1" source="JNUzvuQ-uH0PX8Vwja8d-31" target="JNUzvuQ-uH0PX8Vwja8d-37">
          <mxGeometry relative="1" as="geometry" />
        </mxCell>
        <mxCell id="JNUzvuQ-uH0PX8Vwja8d-39" value="isFrom" style="edgeLabel;html=1;align=center;verticalAlign=middle;resizable=0;points=[];sketch=1;hachureGap=4;jiggle=2;curveFitting=1;" connectable="0" vertex="1" parent="JNUzvuQ-uH0PX8Vwja8d-38">
          <mxGeometry x="-0.15" y="-3" relative="1" as="geometry">
            <mxPoint as="offset" />
          </mxGeometry>
        </mxCell>
        <mxCell id="JNUzvuQ-uH0PX8Vwja8d-47" value="" style="edgeStyle=orthogonalEdgeStyle;rounded=0;sketch=1;hachureGap=4;jiggle=2;curveFitting=1;orthogonalLoop=1;jettySize=auto;html=1;" edge="1" parent="1" source="JNUzvuQ-uH0PX8Vwja8d-31" target="JNUzvuQ-uH0PX8Vwja8d-46">
          <mxGeometry relative="1" as="geometry" />
        </mxCell>
        <mxCell id="JNUzvuQ-uH0PX8Vwja8d-49" value="born" style="edgeLabel;html=1;align=center;verticalAlign=middle;resizable=0;points=[];sketch=1;hachureGap=4;jiggle=2;curveFitting=1;" connectable="0" vertex="1" parent="JNUzvuQ-uH0PX8Vwja8d-47">
          <mxGeometry x="-0.025" y="3" relative="1" as="geometry">
            <mxPoint as="offset" />
          </mxGeometry>
        </mxCell>
        <mxCell id="JNUzvuQ-uH0PX8Vwja8d-31" value="Demographic" style="rounded=0;whiteSpace=wrap;html=1;sketch=1;hachureGap=4;jiggle=2;curveFitting=1;" vertex="1" parent="1">
          <mxGeometry x="160" y="470" width="120" height="60" as="geometry" />
        </mxCell>
        <mxCell id="JNUzvuQ-uH0PX8Vwja8d-34" value="Gender" style="rounded=0;whiteSpace=wrap;html=1;sketch=1;hachureGap=4;jiggle=2;curveFitting=1;" vertex="1" parent="1">
          <mxGeometry x="305" y="610" width="120" height="60" as="geometry" />
        </mxCell>
        <mxCell id="JNUzvuQ-uH0PX8Vwja8d-41" value="" style="edgeStyle=orthogonalEdgeStyle;rounded=0;sketch=1;hachureGap=4;jiggle=2;curveFitting=1;orthogonalLoop=1;jettySize=auto;html=1;" edge="1" parent="1" source="JNUzvuQ-uH0PX8Vwja8d-37" target="JNUzvuQ-uH0PX8Vwja8d-40">
          <mxGeometry relative="1" as="geometry" />
        </mxCell>
        <mxCell id="JNUzvuQ-uH0PX8Vwja8d-42" value="isPartOf" style="edgeLabel;html=1;align=center;verticalAlign=middle;resizable=0;points=[];sketch=1;hachureGap=4;jiggle=2;curveFitting=1;" connectable="0" vertex="1" parent="JNUzvuQ-uH0PX8Vwja8d-41">
          <mxGeometry x="-0.225" relative="1" as="geometry">
            <mxPoint as="offset" />
          </mxGeometry>
        </mxCell>
        <mxCell id="JNUzvuQ-uH0PX8Vwja8d-37" value="City" style="rounded=0;whiteSpace=wrap;html=1;sketch=1;hachureGap=4;jiggle=2;curveFitting=1;" vertex="1" parent="1">
          <mxGeometry x="160" y="610" width="120" height="60" as="geometry" />
        </mxCell>
        <mxCell id="JNUzvuQ-uH0PX8Vwja8d-40" value="Country" style="rounded=0;whiteSpace=wrap;html=1;sketch=1;hachureGap=4;jiggle=2;curveFitting=1;" vertex="1" parent="1">
          <mxGeometry x="160" y="750" width="120" height="60" as="geometry" />
        </mxCell>
        <mxCell id="JNUzvuQ-uH0PX8Vwja8d-46" value="Literal(DATE)" style="rounded=0;whiteSpace=wrap;html=1;sketch=1;hachureGap=4;jiggle=2;curveFitting=1;" vertex="1" parent="1">
          <mxGeometry x="10" y="610" width="120" height="60" as="geometry" />
        </mxCell>
        <mxCell id="JNUzvuQ-uH0PX8Vwja8d-59" value="" style="edgeStyle=orthogonalEdgeStyle;rounded=0;sketch=1;hachureGap=4;jiggle=2;curveFitting=1;orthogonalLoop=1;jettySize=auto;html=1;" edge="1" parent="1" source="JNUzvuQ-uH0PX8Vwja8d-54" target="JNUzvuQ-uH0PX8Vwja8d-58">
          <mxGeometry relative="1" as="geometry" />
        </mxCell>
        <mxCell id="JNUzvuQ-uH0PX8Vwja8d-62" value="signedTo" style="edgeLabel;html=1;align=center;verticalAlign=middle;resizable=0;points=[];sketch=1;hachureGap=4;jiggle=2;curveFitting=1;" connectable="0" vertex="1" parent="JNUzvuQ-uH0PX8Vwja8d-59">
          <mxGeometry x="0.025" y="-1" relative="1" as="geometry">
            <mxPoint as="offset" />
          </mxGeometry>
        </mxCell>
        <mxCell id="JNUzvuQ-uH0PX8Vwja8d-61" value="" style="edgeStyle=orthogonalEdgeStyle;rounded=0;sketch=1;hachureGap=4;jiggle=2;curveFitting=1;orthogonalLoop=1;jettySize=auto;html=1;" edge="1" parent="1" source="JNUzvuQ-uH0PX8Vwja8d-54" target="JNUzvuQ-uH0PX8Vwja8d-60">
          <mxGeometry relative="1" as="geometry" />
        </mxCell>
        <mxCell id="JNUzvuQ-uH0PX8Vwja8d-63" value="hasNetworth" style="edgeLabel;html=1;align=center;verticalAlign=middle;resizable=0;points=[];sketch=1;hachureGap=4;jiggle=2;curveFitting=1;" connectable="0" vertex="1" parent="JNUzvuQ-uH0PX8Vwja8d-61">
          <mxGeometry x="0.025" y="-1" relative="1" as="geometry">
            <mxPoint as="offset" />
          </mxGeometry>
        </mxCell>
        <mxCell id="JNUzvuQ-uH0PX8Vwja8d-54" value="Bussines" style="rounded=0;whiteSpace=wrap;html=1;sketch=1;hachureGap=4;jiggle=2;curveFitting=1;" vertex="1" parent="1">
          <mxGeometry x="-70" y="390" width="120" height="60" as="geometry" />
        </mxCell>
        <mxCell id="JNUzvuQ-uH0PX8Vwja8d-86" value="" style="edgeStyle=orthogonalEdgeStyle;rounded=0;sketch=1;hachureGap=4;jiggle=2;curveFitting=1;orthogonalLoop=1;jettySize=auto;html=1;" edge="1" parent="1" source="JNUzvuQ-uH0PX8Vwja8d-58" target="JNUzvuQ-uH0PX8Vwja8d-85">
          <mxGeometry relative="1" as="geometry" />
        </mxCell>
        <mxCell id="JNUzvuQ-uH0PX8Vwja8d-87" value="isFrom" style="edgeLabel;html=1;align=center;verticalAlign=middle;resizable=0;points=[];sketch=1;hachureGap=4;jiggle=2;curveFitting=1;" connectable="0" vertex="1" parent="JNUzvuQ-uH0PX8Vwja8d-86">
          <mxGeometry x="-0.2" y="2" relative="1" as="geometry">
            <mxPoint as="offset" />
          </mxGeometry>
        </mxCell>
        <mxCell id="JNUzvuQ-uH0PX8Vwja8d-58" value="Organisation" style="rounded=0;whiteSpace=wrap;html=1;sketch=1;hachureGap=4;jiggle=2;curveFitting=1;" vertex="1" parent="1">
          <mxGeometry x="-270" y="340" width="120" height="60" as="geometry" />
        </mxCell>
        <mxCell id="JNUzvuQ-uH0PX8Vwja8d-60" value="Literal(FLOAT)" style="rounded=0;whiteSpace=wrap;html=1;sketch=1;hachureGap=4;jiggle=2;curveFitting=1;" vertex="1" parent="1">
          <mxGeometry x="-270" y="440" width="120" height="60" as="geometry" />
        </mxCell>
        <mxCell id="JNUzvuQ-uH0PX8Vwja8d-72" value="" style="edgeStyle=orthogonalEdgeStyle;rounded=0;sketch=1;hachureGap=4;jiggle=2;curveFitting=1;orthogonalLoop=1;jettySize=auto;html=1;" edge="1" parent="1" source="JNUzvuQ-uH0PX8Vwja8d-66" target="JNUzvuQ-uH0PX8Vwja8d-71">
          <mxGeometry relative="1" as="geometry" />
        </mxCell>
        <mxCell id="JNUzvuQ-uH0PX8Vwja8d-89" value="" style="edgeStyle=orthogonalEdgeStyle;rounded=0;sketch=1;hachureGap=4;jiggle=2;curveFitting=1;orthogonalLoop=1;jettySize=auto;html=1;" edge="1" parent="1" source="JNUzvuQ-uH0PX8Vwja8d-66" target="JNUzvuQ-uH0PX8Vwja8d-88">
          <mxGeometry relative="1" as="geometry" />
        </mxCell>
        <mxCell id="JNUzvuQ-uH0PX8Vwja8d-66" value="PersonalLife" style="rounded=0;whiteSpace=wrap;html=1;sketch=1;hachureGap=4;jiggle=2;curveFitting=1;" vertex="1" parent="1">
          <mxGeometry x="170" y="210" width="120" height="60" as="geometry" />
        </mxCell>
        <mxCell id="JNUzvuQ-uH0PX8Vwja8d-76" value="" style="edgeStyle=orthogonalEdgeStyle;rounded=0;sketch=1;hachureGap=4;jiggle=2;curveFitting=1;orthogonalLoop=1;jettySize=auto;html=1;" edge="1" parent="1" source="JNUzvuQ-uH0PX8Vwja8d-71" target="JNUzvuQ-uH0PX8Vwja8d-75">
          <mxGeometry relative="1" as="geometry" />
        </mxCell>
        <mxCell id="JNUzvuQ-uH0PX8Vwja8d-94" value="member" style="edgeLabel;html=1;align=center;verticalAlign=middle;resizable=0;points=[];sketch=1;hachureGap=4;jiggle=2;curveFitting=1;" connectable="0" vertex="1" parent="JNUzvuQ-uH0PX8Vwja8d-76">
          <mxGeometry x="0.125" y="-2" relative="1" as="geometry">
            <mxPoint as="offset" />
          </mxGeometry>
        </mxCell>
        <mxCell id="JNUzvuQ-uH0PX8Vwja8d-82" value="" style="edgeStyle=orthogonalEdgeStyle;rounded=0;sketch=1;hachureGap=4;jiggle=2;curveFitting=1;orthogonalLoop=1;jettySize=auto;html=1;" edge="1" parent="1" source="JNUzvuQ-uH0PX8Vwja8d-71" target="JNUzvuQ-uH0PX8Vwja8d-81">
          <mxGeometry relative="1" as="geometry" />
        </mxCell>
        <mxCell id="JNUzvuQ-uH0PX8Vwja8d-92" value="Text" style="edgeLabel;html=1;align=center;verticalAlign=middle;resizable=0;points=[];sketch=1;hachureGap=4;jiggle=2;curveFitting=1;" connectable="0" vertex="1" parent="JNUzvuQ-uH0PX8Vwja8d-82">
          <mxGeometry x="-0.225" y="-4" relative="1" as="geometry">
            <mxPoint as="offset" />
          </mxGeometry>
        </mxCell>
        <mxCell id="JNUzvuQ-uH0PX8Vwja8d-93" value="member" style="edgeLabel;html=1;align=center;verticalAlign=middle;resizable=0;points=[];sketch=1;hachureGap=4;jiggle=2;curveFitting=1;" connectable="0" vertex="1" parent="JNUzvuQ-uH0PX8Vwja8d-82">
          <mxGeometry x="-0.225" y="-8" relative="1" as="geometry">
            <mxPoint as="offset" />
          </mxGeometry>
        </mxCell>
        <mxCell id="JNUzvuQ-uH0PX8Vwja8d-71" value="Familiy" style="rounded=0;whiteSpace=wrap;html=1;sketch=1;hachureGap=4;jiggle=2;curveFitting=1;" vertex="1" parent="1">
          <mxGeometry x="170" y="70" width="120" height="60" as="geometry" />
        </mxCell>
        <mxCell id="JNUzvuQ-uH0PX8Vwja8d-80" value="" style="edgeStyle=orthogonalEdgeStyle;rounded=0;sketch=1;hachureGap=4;jiggle=2;curveFitting=1;orthogonalLoop=1;jettySize=auto;html=1;" edge="1" parent="1" source="JNUzvuQ-uH0PX8Vwja8d-75" target="JNUzvuQ-uH0PX8Vwja8d-79">
          <mxGeometry relative="1" as="geometry" />
        </mxCell>
        <mxCell id="JNUzvuQ-uH0PX8Vwja8d-96" value="numberOf" style="edgeLabel;html=1;align=center;verticalAlign=middle;resizable=0;points=[];sketch=1;hachureGap=4;jiggle=2;curveFitting=1;" connectable="0" vertex="1" parent="JNUzvuQ-uH0PX8Vwja8d-80">
          <mxGeometry x="-0.075" y="-1" relative="1" as="geometry">
            <mxPoint as="offset" />
          </mxGeometry>
        </mxCell>
        <mxCell id="JNUzvuQ-uH0PX8Vwja8d-75" value="Children" style="rounded=0;whiteSpace=wrap;html=1;sketch=1;hachureGap=4;jiggle=2;curveFitting=1;" vertex="1" parent="1">
          <mxGeometry x="-30" y="70" width="120" height="60" as="geometry" />
        </mxCell>
        <mxCell id="JNUzvuQ-uH0PX8Vwja8d-79" value="Literal(INT)" style="rounded=0;whiteSpace=wrap;html=1;sketch=1;hachureGap=4;jiggle=2;curveFitting=1;" vertex="1" parent="1">
          <mxGeometry x="-230" y="70" width="120" height="60" as="geometry" />
        </mxCell>
        <mxCell id="JNUzvuQ-uH0PX8Vwja8d-84" value="" style="edgeStyle=orthogonalEdgeStyle;rounded=0;sketch=1;hachureGap=4;jiggle=2;curveFitting=1;orthogonalLoop=1;jettySize=auto;html=1;" edge="1" parent="1" source="JNUzvuQ-uH0PX8Vwja8d-81" target="JNUzvuQ-uH0PX8Vwja8d-83">
          <mxGeometry relative="1" as="geometry" />
        </mxCell>
        <mxCell id="JNUzvuQ-uH0PX8Vwja8d-97" value="numberOf" style="edgeLabel;html=1;align=center;verticalAlign=middle;resizable=0;points=[];sketch=1;hachureGap=4;jiggle=2;curveFitting=1;" connectable="0" vertex="1" parent="JNUzvuQ-uH0PX8Vwja8d-84">
          <mxGeometry x="0.125" y="4" relative="1" as="geometry">
            <mxPoint as="offset" />
          </mxGeometry>
        </mxCell>
        <mxCell id="JNUzvuQ-uH0PX8Vwja8d-81" value="Spouse" style="rounded=0;whiteSpace=wrap;html=1;sketch=1;hachureGap=4;jiggle=2;curveFitting=1;" vertex="1" parent="1">
          <mxGeometry x="380" y="70" width="120" height="60" as="geometry" />
        </mxCell>
        <mxCell id="JNUzvuQ-uH0PX8Vwja8d-83" value="Literal(INT)" style="rounded=0;whiteSpace=wrap;html=1;sketch=1;hachureGap=4;jiggle=2;curveFitting=1;" vertex="1" parent="1">
          <mxGeometry x="580" y="70" width="120" height="60" as="geometry" />
        </mxCell>
        <mxCell id="JNUzvuQ-uH0PX8Vwja8d-85" value="City" style="rounded=0;whiteSpace=wrap;html=1;sketch=1;hachureGap=4;jiggle=2;curveFitting=1;" vertex="1" parent="1">
          <mxGeometry x="-470" y="340" width="120" height="60" as="geometry" />
        </mxCell>
        <mxCell id="JNUzvuQ-uH0PX8Vwja8d-91" value="" style="edgeStyle=orthogonalEdgeStyle;rounded=0;sketch=1;hachureGap=4;jiggle=2;curveFitting=1;orthogonalLoop=1;jettySize=auto;html=1;" edge="1" parent="1" source="JNUzvuQ-uH0PX8Vwja8d-88" target="JNUzvuQ-uH0PX8Vwja8d-90">
          <mxGeometry relative="1" as="geometry" />
        </mxCell>
        <mxCell id="JNUzvuQ-uH0PX8Vwja8d-88" value="PublicImage" style="rounded=0;whiteSpace=wrap;html=1;sketch=1;hachureGap=4;jiggle=2;curveFitting=1;" vertex="1" parent="1">
          <mxGeometry x="-30" y="210" width="120" height="60" as="geometry" />
        </mxCell>
        <mxCell id="JNUzvuQ-uH0PX8Vwja8d-90" value="Literal(INT)&lt;div&gt;&lt;font style=&quot;font-size: 8px;&quot;&gt;can be one of BELOVED,LIKED,CONTROVERSIAL&lt;/font&gt;&lt;/div&gt;" style="rounded=0;whiteSpace=wrap;html=1;sketch=1;hachureGap=4;jiggle=2;curveFitting=1;" vertex="1" parent="1">
          <mxGeometry x="-270" y="210" width="160" height="60" as="geometry" />
        </mxCell>
      </root>
    </mxGraphModel>
  </diagram>
</mxfile>
